<svg class="brand__mark" viewBox="0 0 120 120" fill="none" aria-hidden="true" focusable="false">
  <text x="60" y="108" text-anchor="middle" fill="var(--ghost)" style="font-family:Geist,sans-serif;font-weight:700;font-size:128px">F</text>
  <path d="M6.0 63.0L6.5 62.1L6.9 61.1L7.3 60.2L7.8 59.3L8.3 58.3L8.7 57.4L9.2 56.5L9.6 55.6L10.1 54.7L10.5 53.8L10.9 52.9L11.4 52.1L11.9 51.2L12.3 50.4L12.8 49.6L13.2 48.8L13.6 48.1L14.1 47.3L14.5 46.6L15.0 45.9L15.4 45.2L15.9 44.6L16.4 44.0L16.8 43.4L17.3 42.8L17.7 42.3L18.1 41.7L18.6 41.3L19.1 40.8L19.5 40.4L20.0 40.0L20.4 39.7L20.9 39.3L21.3 39.0L21.8 38.8L22.2 38.6L22.7 38.4L23.1 38.2L23.6 38.1L24.0 38.0L24.4 38.0L24.9 38.0L25.4 38.0L25.8 38.1L26.3 38.2L26.7 38.4L27.1 38.5L27.6 38.8L28.1 39.0L28.5 39.3L28.9 39.6L29.4 40.0L29.8 40.4L30.3 40.9L30.8 41.4L31.2 41.9L31.6 42.5L32.1 43.1L32.5 43.8L33.0 44.5L33.5 45.2L33.9 46.0L34.4 46.8L34.8 47.7L35.3 48.6L35.7 49.6L36.2 50.6L36.6 51.7L37.0 52.8L37.5 53.9L38.0 55.1L38.4 56.3L38.8 57.6L39.3 58.9L39.8 60.3L40.2 61.7L40.7 63.2L41.1 64.7L41.5 66.2L42.0 67.7L42.5 69.3L42.9 70.9L43.4 72.5L43.8 74.1L44.3 75.7L44.7 77.3L45.1 78.8L45.6 80.4L46.1 81.8L46.5 83.3L46.9 84.6L47.4 85.8L47.9 86.9L48.3 87.9L48.8 88.7L49.2 89.3L49.6 89.8L50.1 90.0L50.5 90.0L51.0 89.7L51.5 89.1L51.9 88.3L52.3 87.1L52.8 85.7L53.3 83.9L53.7 81.8L54.2 79.5L54.6 76.9L55.0 74.0L55.5 71.0L56.0 67.8L56.4 64.4L56.9 61.0L57.3 57.6L57.8 54.2L58.2 51.0L58.6 48.0L59.1 45.3L59.6 42.9L60.0 40.9L60.4 39.4L60.9 38.4L61.3 38.0L61.8 38.2L62.3 38.9L62.7 40.2L63.1 42.1L63.6 44.5L64.0 47.4L64.5 50.6L64.9 54.2L65.4 58.0L65.8 62.0L66.3 66.0L66.8 70.0L67.2 73.7L67.7 77.3L68.1 80.5L68.6 83.4L69.0 85.7L69.5 87.6L69.9 89.0L70.3 89.8L70.8 90.0L71.3 89.7L71.7 88.9L72.2 87.6L72.6 85.9L73.0 83.8L73.5 81.4L74.0 78.7L74.4 75.8L74.8 72.8L75.3 69.7L75.8 66.6L76.2 63.4L76.7 60.4L77.1 57.5L77.5 54.7L78.0 52.1L78.4 49.6L78.9 47.4L79.4 45.5L79.8 43.7L80.3 42.2L80.7 41.0L81.1 40.0L81.6 39.2L82.1 38.6L82.5 38.2L83.0 38.0L83.4 38.0L83.8 38.2L84.3 38.5L84.8 39.0L85.2 39.5L85.7 40.2L86.1 41.0L86.5 41.9L87.0 42.9L87.5 43.9L87.9 45.0L88.3 46.1L88.8 47.2L89.3 48.4L89.7 49.6L90.2 50.9L90.6 52.1L91.0 53.4L91.5 54.6L91.9 55.9L92.4 57.1L92.9 58.4L93.3 59.6L93.8 60.8L94.2 62.0L94.6 63.2L95.1 64.4L95.6 65.6L96.0 66.7L96.5 67.8L96.9 68.9L97.3 70.0L97.8 71.0L98.3 72.1L98.7 73.1L99.2 74.1L99.6 75.0L100.0 76.0L100.5 76.9L101.0 77.7L101.4 78.6L101.8 79.4L102.3 80.2L102.8 81.0L103.2 81.7L103.7 82.4L104.1 83.1L104.5 83.8L105.0 84.4L105.4 85.0L105.9 85.6L106.4 86.1L106.8 86.6L107.3 87.1L107.7 87.5L108.1 87.9L108.6 88.2L109.1 88.6L109.5 88.9L110.0 89.1L110.4 89.4L110.8 89.6L111.3 89.7L111.8 89.8L112.2 89.9L112.7 90.0L113.1 90.0L113.5 90.0L114.0 89.9" stroke="var(--bg)" stroke-width="13" stroke-linejoin="round" stroke-linecap="round"/>
  <path d="M6.0 63.0L6.5 62.1L6.9 61.1L7.3 60.2L7.8 59.3L8.3 58.3L8.7 57.4L9.2 56.5L9.6 55.6L10.1 54.7L10.5 53.8L10.9 52.9L11.4 52.1L11.9 51.2L12.3 50.4L12.8 49.6L13.2 48.8L13.6 48.1L14.1 47.3L14.5 46.6L15.0 45.9L15.4 45.2L15.9 44.6L16.4 44.0L16.8 43.4L17.3 42.8L17.7 42.3L18.1 41.7L18.6 41.3L19.1 40.8L19.5 40.4L20.0 40.0L20.4 39.7L20.9 39.3L21.3 39.0L21.8 38.8L22.2 38.6L22.7 38.4L23.1 38.2L23.6 38.1L24.0 38.0L24.4 38.0L24.9 38.0L25.4 38.0L25.8 38.1L26.3 38.2L26.7 38.4L27.1 38.5L27.6 38.8L28.1 39.0L28.5 39.3L28.9 39.6L29.4 40.0L29.8 40.4L30.3 40.9L30.8 41.4L31.2 41.9L31.6 42.5L32.1 43.1L32.5 43.8L33.0 44.5L33.5 45.2L33.9 46.0L34.4 46.8L34.8 47.7L35.3 48.6L35.7 49.6L36.2 50.6L36.6 51.7L37.0 52.8L37.5 53.9L38.0 55.1L38.4 56.3L38.8 57.6L39.3 58.9L39.8 60.3L40.2 61.7L40.7 63.2L41.1 64.7L41.5 66.2L42.0 67.7L42.5 69.3L42.9 70.9L43.4 72.5L43.8 74.1L44.3 75.7L44.7 77.3L45.1 78.8L45.6 80.4L46.1 81.8L46.5 83.3L46.9 84.6L47.4 85.8L47.9 86.9L48.3 87.9L48.8 88.7L49.2 89.3L49.6 89.8L50.1 90.0L50.5 90.0L51.0 89.7L51.5 89.1L51.9 88.3L52.3 87.1L52.8 85.7L53.3 83.9L53.7 81.8L54.2 79.5L54.6 76.9L55.0 74.0L55.5 71.0L56.0 67.8L56.4 64.4L56.9 61.0L57.3 57.6L57.8 54.2L58.2 51.0L58.6 48.0L59.1 45.3L59.6 42.9L60.0 40.9L60.4 39.4L60.9 38.4L61.3 38.0L61.8 38.2L62.3 38.9L62.7 40.2L63.1 42.1L63.6 44.5L64.0 47.4L64.5 50.6L64.9 54.2L65.4 58.0L65.8 62.0L66.3 66.0L66.8 70.0L67.2 73.7L67.7 77.3L68.1 80.5L68.6 83.4L69.0 85.7L69.5 87.6L69.9 89.0L70.3 89.8L70.8 90.0L71.3 89.7L71.7 88.9L72.2 87.6L72.6 85.9L73.0 83.8L73.5 81.4L74.0 78.7L74.4 75.8L74.8 72.8L75.3 69.7L75.8 66.6L76.2 63.4L76.7 60.4L77.1 57.5L77.5 54.7L78.0 52.1L78.4 49.6L78.9 47.4L79.4 45.5L79.8 43.7L80.3 42.2L80.7 41.0L81.1 40.0L81.6 39.2L82.1 38.6L82.5 38.2L83.0 38.0L83.4 38.0L83.8 38.2L84.3 38.5L84.8 39.0L85.2 39.5L85.7 40.2L86.1 41.0L86.5 41.9L87.0 42.9L87.5 43.9L87.9 45.0L88.3 46.1L88.8 47.2L89.3 48.4L89.7 49.6L90.2 50.9L90.6 52.1L91.0 53.4L91.5 54.6L91.9 55.9L92.4 57.1L92.9 58.4L93.3 59.6L93.8 60.8L94.2 62.0L94.6 63.2L95.1 64.4L95.6 65.6L96.0 66.7L96.5 67.8L96.9 68.9L97.3 70.0L97.8 71.0L98.3 72.1L98.7 73.1L99.2 74.1L99.6 75.0L100.0 76.0L100.5 76.9L101.0 77.7L101.4 78.6L101.8 79.4L102.3 80.2L102.8 81.0L103.2 81.7L103.7 82.4L104.1 83.1L104.5 83.8L105.0 84.4L105.4 85.0L105.9 85.6L106.4 86.1L106.8 86.6L107.3 87.1L107.7 87.5L108.1 87.9L108.6 88.2L109.1 88.6L109.5 88.9L110.0 89.1L110.4 89.4L110.8 89.6L111.3 89.7L111.8 89.8L112.2 89.9L112.7 90.0L113.1 90.0L113.5 90.0L114.0 89.9" stroke="var(--l2)" stroke-width="6" stroke-linejoin="round" stroke-linecap="round"/>
</svg>
